# xmcd CD database file
#
# Track frame offsets:
#	150
#	20919
#	42164
#	59816
#
# Disc length: 1113 seconds
#
# Revision: 0
# Processed by: cddbd v1.5.1PL2 Copyright (c) Steve Scherf et al.
# Submitted via: CDex 1.60beta1
#
DISCID=37045704
DTITLE=SabotageDisk - Meets Rock
DYEAR=1900
DGENRE=ロック (一般)
TTITLE0=黒い月
TTITLE1=Mirror-影見
TTITLE2=Line
TTITLE3=恋の羽
EXTD=
EXTT0=
EXTT1=
EXTT2=
EXTT3=
PLAYORDER=
